<svg width="24" height="24" viewBox="0 0 24 24" fill="none" xmlns="http://www.w3.org/2000/svg">
<path d="M15.9984 8H17.1581C18.1983 8 19.0649 8.79732 19.1512 9.83391L19.8179 17.8339C19.9151 18.9999 18.9949 20 17.8248 20H6.17201C5.00193 20 4.08175 18.9999 4.17892 17.8339L4.84559 9.83391C4.93197 8.79732 5.7985 8 6.83868 8H7.99841M15.9984 8H7.99841M15.9984 8L15.9984 7C15.9984 5.93913 15.577 4.92172 14.8268 4.17157C14.0767 3.42143 13.0593 3 11.9984 3C10.9375 3 9.92013 3.42143 9.16999 4.17157C8.41984 4.92172 7.99841 5.93913 7.99841 7L7.99841 8M15.9984 8L15.9984 12M7.99841 8L7.99841 12" stroke="black" stroke-width="1.5" stroke-linecap="round" stroke-linejoin="round"/>
</svg>
