<svg width="290" height="216" viewBox="0 0 290 216" fill="none" xmlns="http://www.w3.org/2000/svg">
<g filter="url(#filter0_dd_8828_28)">
<rect x="41" y="21" width="208" height="134" rx="24" fill="white"/>
<rect x="40.5" y="20.5" width="209" height="135" rx="24.5" stroke="#D6DCE5"/>
<path d="M108.276 70.4478C109.664 68.7121 110.606 66.3815 110.357 64C108.326 64.101 105.847 65.3402 104.412 67.0772C103.123 68.5648 101.983 70.9929 102.28 73.2746C104.56 73.4724 106.839 72.1348 108.276 70.4478Z" fill="#000008"/>
<path d="M110.332 73.7201C107.02 73.5229 104.204 75.5996 102.623 75.5996C101.04 75.5996 98.6188 73.8195 95.9995 73.8675C92.5903 73.9176 89.427 75.8452 87.697 78.9109C84.1386 85.0439 86.7579 94.1413 90.2182 99.1363C91.8986 101.608 93.9238 104.328 96.5923 104.231C99.1135 104.132 100.102 102.598 103.166 102.598C106.229 102.598 107.119 104.231 109.788 104.181C112.556 104.132 114.286 101.709 115.966 99.2353C117.894 96.4183 118.683 93.6982 118.733 93.5489C118.683 93.4994 113.396 91.4711 113.347 85.389C113.297 80.2964 117.498 77.8741 117.696 77.7239C115.323 74.2152 111.617 73.8195 110.332 73.7201Z" fill="#000008"/>
<path d="M139.166 66.8281C146.364 66.8281 151.376 71.7896 151.376 79.0131C151.376 86.2623 146.261 91.2496 138.986 91.2496H131.017V103.923H125.259V66.8281L139.166 66.8281ZM131.017 86.4165H137.623C142.636 86.4165 145.489 83.7177 145.489 79.0388C145.489 74.3605 142.636 71.6869 137.649 71.6869H131.017V86.4165Z" fill="#000008"/>
<path d="M152.88 96.2367C152.88 91.5063 156.505 88.6017 162.932 88.2417L170.335 87.8048V85.7228C170.335 82.715 168.304 80.9156 164.911 80.9156C161.697 80.9156 159.692 82.4576 159.204 84.8744H153.96C154.269 79.9898 158.433 76.391 165.117 76.391C171.672 76.391 175.862 79.8614 175.862 85.2855V103.923H170.54V99.4756H170.412C168.844 102.483 165.425 104.385 161.878 104.385C156.582 104.385 152.88 101.095 152.88 96.2367ZM170.335 93.7947V91.6611L163.677 92.0721C160.361 92.3037 158.484 93.7689 158.484 96.0825C158.484 98.4472 160.438 99.9898 163.42 99.9898C167.301 99.9898 170.335 97.3162 170.335 93.7947Z" fill="#000008"/>
<path d="M180.886 113.871V109.373C181.296 109.475 182.221 109.475 182.685 109.475C185.255 109.475 186.643 108.396 187.491 105.62C187.491 105.568 187.98 103.974 187.98 103.949L178.212 76.8794H184.227L191.065 98.8845H191.167L198.006 76.8794H203.867L193.738 105.336C191.425 111.892 188.752 114 183.148 114C182.685 114 181.296 113.948 180.886 113.871Z" fill="#000008"/>
</g>
<defs>
<filter id="filter0_dd_8828_28" x="0" y="0" width="290" height="216" filterUnits="userSpaceOnUse" color-interpolation-filters="sRGB">
<feFlood flood-opacity="0" result="BackgroundImageFix"/>
<feColorMatrix in="SourceAlpha" type="matrix" values="0 0 0 0 0 0 0 0 0 0 0 0 0 0 0 0 0 0 127 0" result="hardAlpha"/>
<feOffset dy="2"/>
<feGaussianBlur stdDeviation="10"/>
<feColorMatrix type="matrix" values="0 0 0 0 0.717647 0 0 0 0 0.717647 0 0 0 0 0.717647 0 0 0 0.08 0"/>
<feBlend mode="normal" in2="BackgroundImageFix" result="effect1_dropShadow_8828_28"/>
<feColorMatrix in="SourceAlpha" type="matrix" values="0 0 0 0 0 0 0 0 0 0 0 0 0 0 0 0 0 0 127 0" result="hardAlpha"/>
<feOffset dy="20"/>
<feGaussianBlur stdDeviation="20"/>
<feColorMatrix type="matrix" values="0 0 0 0 0.717647 0 0 0 0 0.717647 0 0 0 0 0.717647 0 0 0 0.08 0"/>
<feBlend mode="normal" in2="effect1_dropShadow_8828_28" result="effect2_dropShadow_8828_28"/>
<feBlend mode="normal" in="SourceGraphic" in2="effect2_dropShadow_8828_28" result="shape"/>
</filter>
</defs>
</svg>
