<svg width="210" height="136" viewBox="0 0 210 136" fill="none" xmlns="http://www.w3.org/2000/svg">
<rect x="0.5" y="0.5" width="209" height="135" rx="24.5" fill="white"/>
<rect x="0.5" y="0.5" width="209" height="135" rx="24.5" stroke="#D6DCE5"/>
<path fill-rule="evenodd" clip-rule="evenodd" d="M209.079 26.2613H191.862L182.863 52.086L173.473 26.2613H155.865V66.4722L137.866 26.2613H123.39L105.391 67.3451H117.911L121.433 59.1288H140.214L143.736 67.3451H167.212V38.7817L177.777 67.3451H187.558L198.123 38.7817V67.3451H209.079V73.6053H194.601L182.863 86.5176L170.734 73.6053H121.042V114.689H170.343L182.472 101.386L194.601 114.689H209.079V119.775H191.862L182.472 109.602L173.081 119.775H114.782V72.8226H96L119.477 20H142.17L150.387 37.9991V20H178.559L183.254 33.695L187.95 20H209.079V26.2613ZM209.079 82.6043L198.515 93.9513L209.079 105.298V114.689L189.906 93.9513L209.079 73.6053V82.6043ZM155.865 114.689V104.907H132.389V98.6472H155.474V89.2564H132.389V82.9962H155.865V73.6053L175.429 93.9513L155.865 114.689ZM124.954 50.1287L130.433 36.8256L135.91 50.1287H124.954Z" fill="#006FCF"/>
</svg>
