<svg width="290" height="216" viewBox="0 0 290 216" fill="none" xmlns="http://www.w3.org/2000/svg">
<g filter="url(#filter0_dd_8828_18)">
<rect x="41" y="21" width="208" height="134" rx="24" fill="url(#paint0_linear_8828_18)"/>
<rect x="40.5" y="20.5" width="209" height="135" rx="24.5" stroke="#D6DCE5"/>
<path d="M44 44C44 32.9543 52.9543 24 64 24H173C208.346 24 237 52.6538 237 88C237 123.346 208.346 152 173 152H64C52.9543 152 44 143.046 44 132V44Z" fill="white"/>
<path d="M106.844 88.0826C106.844 95.9518 113.024 102.052 120.974 102.052C123.223 102.052 125.145 101.609 127.519 100.493V94.3473C125.433 96.4341 123.584 97.2774 121.216 97.2774C115.957 97.2774 112.224 93.465 112.224 88.0437C112.224 82.9057 116.078 78.8511 120.974 78.8511C123.465 78.8511 125.35 79.7377 127.519 81.8612V75.7177C125.229 74.5564 123.344 74.0742 121.097 74.0742C113.187 74.0742 106.844 80.2999 106.844 88.0826Z" fill="#251F1F"/>
<path d="M93.4432 81.5823C93.4432 83.0268 94.3644 83.7923 97.4978 84.9514C103.438 87.1247 105.198 89.0493 105.198 93.3028C105.198 98.4841 101.39 102.091 95.9647 102.091C91.9922 102.091 89.1032 100.528 86.6963 96.9963L90.0698 93.7483C91.2721 96.0729 93.2789 97.3185 95.7679 97.3185C98.099 97.3185 99.8225 95.7118 99.8225 93.5429C99.8225 92.4184 99.2992 91.4518 98.2569 90.7728C97.7314 90.4505 96.6912 89.9683 94.6477 89.2482C89.7432 87.4836 88.0608 85.5958 88.0608 81.9067C88.0608 77.5255 91.6743 74.2364 96.4101 74.2364C99.3446 74.2364 102.03 75.2398 104.277 77.2055L101.544 80.7822C100.184 79.2576 98.8991 78.6132 97.3335 78.6132C95.0824 78.6132 93.4432 79.8956 93.4432 81.5823Z" fill="#251F1F"/>
<path fill-rule="evenodd" clip-rule="evenodd" d="M62.7362 74.6797H55.0703V101.449H62.6952C66.7476 101.449 69.6778 100.493 72.2468 98.3587C75.3002 95.8308 77.1058 92.0205 77.1058 88.0827C77.1058 80.1832 71.2023 74.6797 62.7362 74.6797ZM68.8344 94.7907C67.1931 96.2698 65.0631 96.9163 61.6896 96.9163H60.2883V79.2166H61.6896C65.0631 79.2166 67.1088 79.8178 68.8344 81.3812C70.6422 82.9879 71.7256 85.4791 71.7256 88.0438C71.7256 90.6128 70.6422 93.1839 68.8344 94.7907Z" fill="#251F1F"/>
<path d="M84.7307 74.6797H79.5084V101.449H84.7307V74.6797Z" fill="#251F1F"/>
<path d="M161.781 74.6797L168.922 92.6585L176.153 74.6797H181.812L170.248 102.137H167.439L156.079 74.6797H161.781Z" fill="#251F1F"/>
<path d="M184.174 101.449H198.982V96.9163H189.392V89.6916H198.628V85.1569H189.392V79.2166H198.982V74.6797H184.174V101.449Z" fill="#251F1F"/>
<path fill-rule="evenodd" clip-rule="evenodd" d="M210.182 74.6797C216.204 74.6797 219.66 77.571 219.66 82.5814C219.66 86.6814 217.491 89.3715 213.557 90.1716L221.984 101.449H215.564L208.337 90.6949H207.654V101.449H202.44V74.6797H210.182ZM207.654 87.0036H209.183C212.517 87.0036 214.284 85.5548 214.284 82.8647C214.284 80.2589 212.517 78.8944 209.263 78.8944H207.654V87.0036Z" fill="#251F1F"/>
<path fill-rule="evenodd" clip-rule="evenodd" d="M223.82 76.0832C223.82 75.6118 223.494 75.3545 222.925 75.3545H222.168V77.7159H222.731V76.8011L223.39 77.7159H224.08L223.304 76.7428C223.634 76.6519 223.82 76.4097 223.82 76.0832ZM222.826 76.4054H222.731V75.787H222.832C223.111 75.787 223.256 75.8886 223.256 76.0919C223.256 76.2995 223.109 76.4054 222.826 76.4054Z" fill="#251F1F"/>
<path fill-rule="evenodd" clip-rule="evenodd" d="M220.981 76.5307C220.981 75.3868 221.894 74.4721 223.038 74.4721C224.153 74.4721 225.07 75.4041 225.07 76.5307C225.07 77.6639 224.153 78.5894 223.038 78.5894C221.902 78.5894 220.981 77.6725 220.981 76.5307ZM221.39 76.5329C221.39 77.4714 222.127 78.2218 223.029 78.2218C223.929 78.2218 224.659 77.4628 224.659 76.5329C224.659 75.6117 223.929 74.8419 223.029 74.8419C222.121 74.8419 221.39 75.5944 221.39 76.5329Z" fill="#251F1F"/>
<g filter="url(#filter1_i_8828_18)">
<path d="M143.348 102.262C135.524 102.262 129.18 95.9177 129.18 88.0938V88.0746C129.18 84.1819 130.756 80.6401 133.305 78.0906C133.305 78.0709 133.325 78.0709 133.325 78.0517C133.344 78.0517 133.344 78.032 133.364 78.032C135.914 75.4825 139.456 73.9062 143.348 73.9062H143.368C151.192 73.9062 157.536 80.2508 157.536 88.0746V88.0938C157.536 91.9865 155.959 95.5092 153.41 98.0784C153.41 98.0976 153.391 98.0976 153.391 98.1173C153.371 98.1173 153.371 98.1365 153.352 98.1365C150.783 100.686 147.26 102.262 143.368 102.262H143.348Z" fill="url(#paint1_linear_8828_18)"/>
</g>
</g>
<defs>
<filter id="filter0_dd_8828_18" x="0" y="0" width="290" height="216" filterUnits="userSpaceOnUse" color-interpolation-filters="sRGB">
<feFlood flood-opacity="0" result="BackgroundImageFix"/>
<feColorMatrix in="SourceAlpha" type="matrix" values="0 0 0 0 0 0 0 0 0 0 0 0 0 0 0 0 0 0 127 0" result="hardAlpha"/>
<feOffset dy="2"/>
<feGaussianBlur stdDeviation="10"/>
<feColorMatrix type="matrix" values="0 0 0 0 0.717647 0 0 0 0 0.717647 0 0 0 0 0.717647 0 0 0 0.08 0"/>
<feBlend mode="normal" in2="BackgroundImageFix" result="effect1_dropShadow_8828_18"/>
<feColorMatrix in="SourceAlpha" type="matrix" values="0 0 0 0 0 0 0 0 0 0 0 0 0 0 0 0 0 0 127 0" result="hardAlpha"/>
<feOffset dy="20"/>
<feGaussianBlur stdDeviation="20"/>
<feColorMatrix type="matrix" values="0 0 0 0 0.717647 0 0 0 0 0.717647 0 0 0 0 0.717647 0 0 0 0.08 0"/>
<feBlend mode="normal" in2="effect1_dropShadow_8828_18" result="effect2_dropShadow_8828_18"/>
<feBlend mode="normal" in="SourceGraphic" in2="effect2_dropShadow_8828_18" result="shape"/>
</filter>
<filter id="filter1_i_8828_18" x="129.18" y="73.9062" width="29.3974" height="29.9124" filterUnits="userSpaceOnUse" color-interpolation-filters="sRGB">
<feFlood flood-opacity="0" result="BackgroundImageFix"/>
<feBlend mode="normal" in="SourceGraphic" in2="BackgroundImageFix" result="shape"/>
<feColorMatrix in="SourceAlpha" type="matrix" values="0 0 0 0 0 0 0 0 0 0 0 0 0 0 0 0 0 0 127 0" result="hardAlpha"/>
<feOffset dx="1.03798" dy="1.55697"/>
<feGaussianBlur stdDeviation="1.03798"/>
<feComposite in2="hardAlpha" operator="arithmetic" k2="-1" k3="1"/>
<feColorMatrix type="matrix" values="0 0 0 0 0 0 0 0 0 0 0 0 0 0 0 0 0 0 0.35 0"/>
<feBlend mode="normal" in2="shape" result="effect1_innerShadow_8828_18"/>
</filter>
<linearGradient id="paint0_linear_8828_18" x1="106.438" y1="21" x2="186.634" y2="156.712" gradientUnits="userSpaceOnUse">
<stop stop-color="#E05026"/>
<stop offset="1" stop-color="#F9A020"/>
</linearGradient>
<linearGradient id="paint1_linear_8828_18" x1="135.927" y1="73.9062" x2="159.226" y2="93.6222" gradientUnits="userSpaceOnUse">
<stop stop-color="#EF3823"/>
<stop offset="0.489583" stop-color="#F04D22"/>
<stop offset="1" stop-color="#F7911D"/>
</linearGradient>
</defs>
</svg>
