<svg width="210" height="136" viewBox="0 0 210 136" fill="none" xmlns="http://www.w3.org/2000/svg">
<rect x="0.5" y="0.5" width="209" height="135" rx="24.5" fill="white"/>
<rect x="0.5" y="0.5" width="209" height="135" rx="24.5" stroke="#D6DCE5"/>
<path d="M103.726 46.1617L94.0243 91.513H82.2929L91.9961 46.1617H103.726ZM153.085 75.4452L159.262 58.4142L162.816 75.4452H153.085ZM166.174 91.513H177.026L167.557 46.1617H157.54C155.29 46.1617 153.391 47.4708 152.545 49.4889L134.945 91.513H147.264L149.71 84.7408H164.762L166.174 91.513ZM135.556 76.7055C135.606 64.7357 119.003 64.0769 119.118 58.73C119.152 57.1008 120.704 55.3726 124.093 54.9291C125.777 54.7095 130.406 54.5415 135.662 56.9602L137.721 47.343C134.897 46.3181 131.264 45.332 126.746 45.332C115.15 45.332 106.989 51.4971 106.92 60.3247C106.847 66.8529 112.746 70.4959 117.192 72.6663C121.762 74.8897 123.298 76.3136 123.278 78.3016C123.248 81.3461 119.632 82.6867 116.259 82.7399C110.359 82.8332 106.936 81.148 104.207 79.8762L102.081 89.8135C104.821 91.0723 109.881 92.1661 115.13 92.2221C127.453 92.2221 135.516 86.1331 135.556 76.7055ZM86.9622 46.1617L67.9547 91.513H55.5515L46.1985 55.3195C45.6301 53.0903 45.1363 52.275 43.4095 51.3349C40.5918 49.8062 35.934 48.3693 31.8359 47.4794L32.1158 46.1617H52.0779C54.6214 46.1617 56.9108 47.8555 57.4878 50.7851L62.4285 77.0299L74.6365 46.1617H86.9622Z" fill="#1434CB"/>
</svg>
