<svg width="162" height="35" viewBox="0 0 162 35" fill="none" xmlns="http://www.w3.org/2000/svg">
<g clip-path="url(#clip0_8824_9637)">
<path d="M14.7792 29.42C13.2392 29.42 11.9208 29.1517 10.8242 28.615C9.75085 28.055 8.87585 27.3317 8.19918 26.445C7.52251 25.535 7.02085 24.5433 6.69418 23.47C6.36751 22.3967 6.20418 21.3467 6.20418 20.32C6.20418 19.0367 6.35584 17.8467 6.65918 16.75C6.98585 15.6533 7.48751 14.6967 8.16418 13.88C8.84085 13.04 9.71585 12.3867 10.7892 11.92C11.8858 11.4533 13.2158 11.22 14.7792 11.22C16.5292 11.22 18.1042 11.605 19.5042 12.375C20.9042 13.145 22.0125 14.2183 22.8292 15.595C23.6692 16.9483 24.0892 18.5233 24.0892 20.32C24.0892 22.1633 23.6692 23.7733 22.8292 25.15C21.9892 26.5033 20.8692 27.5533 19.4692 28.3C18.0692 29.0467 16.5058 29.42 14.7792 29.42ZM13.3092 25.885C14.5458 25.885 15.6192 25.6517 16.5292 25.185C17.4625 24.7183 18.1742 24.0767 18.6642 23.26C19.1775 22.42 19.4342 21.44 19.4342 20.32C19.4342 18.64 18.8975 17.2867 17.8242 16.26C16.7742 15.2333 15.2692 14.72 13.3092 14.72C12.0725 14.72 10.9408 14.9417 9.91418 15.385C8.91085 15.8283 8.11751 16.47 7.53418 17.31C6.95085 18.1267 6.65918 19.13 6.65918 20.32C6.65918 21.44 6.92751 22.42 7.46418 23.26C8.00085 24.0767 8.77085 24.7183 9.77418 25.185C10.7775 25.6517 11.9558 25.885 13.3092 25.885ZM2.10918 11.605H6.44918L6.65918 16.225V36H2.10918V11.605ZM50.7113 29H46.1613V11.605H50.7113V29ZM46.4063 20.635L46.4413 21.825C46.3947 22.1517 46.278 22.63 46.0913 23.26C45.9047 23.8667 45.613 24.52 45.2163 25.22C44.843 25.92 44.353 26.5967 43.7463 27.25C43.1397 27.88 42.393 28.405 41.5063 28.825C40.6197 29.2217 39.5697 29.42 38.3563 29.42C37.3997 29.42 36.4547 29.3033 35.5213 29.07C34.6113 28.8367 33.783 28.4517 33.0363 27.915C32.2897 27.355 31.6947 26.6083 31.2513 25.675C30.808 24.7417 30.5863 23.5633 30.5863 22.14V11.605H35.1363V21.37C35.1363 22.49 35.3113 23.3767 35.6613 24.03C36.0347 24.66 36.5713 25.1033 37.2713 25.36C37.9713 25.6167 38.7997 25.745 39.7563 25.745C41.0163 25.745 42.1013 25.4767 43.0113 24.94C43.9213 24.38 44.6563 23.7033 45.2163 22.91C45.7997 22.1167 46.1963 21.3583 46.4063 20.635ZM58.0039 11.605H62.5539V29H58.0039V11.605ZM69.2389 15.35C67.9322 15.35 66.8006 15.6067 65.8439 16.12C64.8872 16.61 64.1172 17.2167 63.5339 17.94C62.9506 18.6633 62.5422 19.3633 62.3089 20.04L62.2739 18.115C62.2972 17.835 62.3906 17.4267 62.5539 16.89C62.7172 16.33 62.9622 15.735 63.2889 15.105C63.6156 14.4517 64.0472 13.8333 64.5839 13.25C65.1206 12.6433 65.7739 12.1533 66.5439 11.78C67.3139 11.4067 68.2122 11.22 69.2389 11.22V15.35ZM82.1318 26.585H81.2918L86.6468 11.5H89.6918L83.0418 29H80.4168L73.8018 11.5H76.8468L82.1318 26.585ZM101.924 29.35C100.547 29.35 99.2756 28.965 98.109 28.195C96.9656 27.4017 96.044 26.3283 95.344 24.975C94.6673 23.5983 94.329 22.035 94.329 20.285C94.329 18.535 94.679 16.9717 95.379 15.595C96.079 14.2183 97.024 13.1333 98.214 12.34C99.4273 11.5467 100.781 11.15 102.274 11.15C103.907 11.15 105.144 11.57 105.984 12.41C106.847 13.2267 107.431 14.3233 107.734 15.7C108.061 17.0767 108.224 18.605 108.224 20.285C108.224 21.1717 108.131 22.14 107.944 23.19C107.757 24.2167 107.431 25.2083 106.964 26.165C106.521 27.0983 105.891 27.8683 105.074 28.475C104.257 29.0583 103.207 29.35 101.924 29.35ZM102.624 26.69C103.814 26.69 104.794 26.3983 105.564 25.815C106.357 25.2317 106.941 24.4617 107.314 23.505C107.687 22.525 107.874 21.4517 107.874 20.285C107.874 19.0017 107.676 17.8817 107.279 16.925C106.906 15.945 106.322 15.1867 105.529 14.65C104.759 14.09 103.791 13.81 102.624 13.81C100.874 13.81 99.5206 14.4283 98.564 15.665C97.6073 16.8783 97.129 18.4183 97.129 20.285C97.129 21.5217 97.3623 22.63 97.829 23.61C98.319 24.5667 98.9723 25.325 99.789 25.885C100.629 26.4217 101.574 26.69 102.624 26.69ZM107.874 11.5H110.674V29H108.119C108.119 29 108.096 28.79 108.049 28.37C108.026 27.95 107.991 27.46 107.944 26.9C107.897 26.34 107.874 25.8733 107.874 25.5V11.5ZM118.386 11.5H121.186V29H118.386V11.5ZM127.206 11.15C128.139 11.15 128.979 11.29 129.726 11.57C130.472 11.85 131.102 12.2583 131.616 12.795C132.129 13.3317 132.526 13.985 132.806 14.755C133.086 15.5017 133.226 16.3533 133.226 17.31V29H130.426V18.01C130.426 16.6567 130.111 15.6417 129.481 14.965C128.851 14.2883 127.906 13.95 126.646 13.95C125.689 13.95 124.802 14.195 123.986 14.685C123.169 15.175 122.492 15.8517 121.956 16.715C121.442 17.555 121.127 18.535 121.011 19.655L120.976 17.625C121.092 16.645 121.326 15.7583 121.676 14.965C122.049 14.1717 122.504 13.495 123.041 12.935C123.601 12.3517 124.231 11.9083 124.931 11.605C125.654 11.3017 126.412 11.15 127.206 11.15ZM139.691 11.5H149.981V14.125H139.691V11.5ZM143.436 6.95H146.236V29H143.436V6.95ZM159.904 4.5V7.895H156.264V4.5H159.904ZM156.684 11.5H159.484V29H156.684V11.5Z" fill="white"/>
</g>
<defs>
<clipPath id="clip0_8824_9637">
<rect width="162" height="35" fill="white"/>
</clipPath>
</defs>
</svg>
