<svg width="162" height="27" viewBox="0 0 162 27" fill="none" xmlns="http://www.w3.org/2000/svg">
<g clip-path="url(#clip0_8830_39)">
<path d="M14.7792 25.42C13.2392 25.42 11.9208 25.1517 10.8242 24.615C9.75085 24.055 8.87585 23.3317 8.19918 22.445C7.52251 21.535 7.02085 20.5433 6.69418 19.47C6.36751 18.3967 6.20418 17.3467 6.20418 16.32C6.20418 15.0367 6.35584 13.8467 6.65918 12.75C6.98585 11.6533 7.48751 10.6967 8.16418 9.88C8.84085 9.04 9.71585 8.38667 10.7892 7.92C11.8858 7.45333 13.2158 7.22 14.7792 7.22C16.5292 7.22 18.1042 7.605 19.5042 8.375C20.9042 9.145 22.0125 10.2183 22.8292 11.595C23.6692 12.9483 24.0892 14.5233 24.0892 16.32C24.0892 18.1633 23.6692 19.7733 22.8292 21.15C21.9892 22.5033 20.8692 23.5533 19.4692 24.3C18.0692 25.0467 16.5058 25.42 14.7792 25.42ZM13.3092 21.885C14.5458 21.885 15.6192 21.6517 16.5292 21.185C17.4625 20.7183 18.1742 20.0767 18.6642 19.26C19.1775 18.42 19.4342 17.44 19.4342 16.32C19.4342 14.64 18.8975 13.2867 17.8242 12.26C16.7742 11.2333 15.2692 10.72 13.3092 10.72C12.0725 10.72 10.9408 10.9417 9.91418 11.385C8.91085 11.8283 8.11751 12.47 7.53418 13.31C6.95085 14.1267 6.65918 15.13 6.65918 16.32C6.65918 17.44 6.92751 18.42 7.46418 19.26C8.00085 20.0767 8.77085 20.7183 9.77418 21.185C10.7775 21.6517 11.9558 21.885 13.3092 21.885ZM2.10918 7.605H6.44918L6.65918 12.225V32H2.10918V7.605ZM50.7113 25H46.1613V7.605H50.7113V25ZM46.4063 16.635L46.4413 17.825C46.3947 18.1517 46.278 18.63 46.0913 19.26C45.9047 19.8667 45.613 20.52 45.2163 21.22C44.843 21.92 44.353 22.5967 43.7463 23.25C43.1397 23.88 42.393 24.405 41.5063 24.825C40.6197 25.2217 39.5697 25.42 38.3563 25.42C37.3997 25.42 36.4547 25.3033 35.5213 25.07C34.6113 24.8367 33.783 24.4517 33.0363 23.915C32.2897 23.355 31.6947 22.6083 31.2513 21.675C30.808 20.7417 30.5863 19.5633 30.5863 18.14V7.605H35.1363V17.37C35.1363 18.49 35.3113 19.3767 35.6613 20.03C36.0347 20.66 36.5713 21.1033 37.2713 21.36C37.9713 21.6167 38.7997 21.745 39.7563 21.745C41.0163 21.745 42.1013 21.4767 43.0113 20.94C43.9213 20.38 44.6563 19.7033 45.2163 18.91C45.7997 18.1167 46.1963 17.3583 46.4063 16.635ZM58.0039 7.605H62.5539V25H58.0039V7.605ZM69.2389 11.35C67.9322 11.35 66.8006 11.6067 65.8439 12.12C64.8872 12.61 64.1172 13.2167 63.5339 13.94C62.9506 14.6633 62.5422 15.3633 62.3089 16.04L62.2739 14.115C62.2972 13.835 62.3906 13.4267 62.5539 12.89C62.7172 12.33 62.9622 11.735 63.2889 11.105C63.6156 10.4517 64.0472 9.83333 64.5839 9.25C65.1206 8.64333 65.7739 8.15333 66.5439 7.78C67.3139 7.40667 68.2122 7.22 69.2389 7.22V11.35ZM82.1318 22.585H81.2918L86.6468 7.5H89.6918L83.0418 25H80.4168L73.8018 7.5H76.8468L82.1318 22.585ZM101.924 25.35C100.547 25.35 99.2756 24.965 98.109 24.195C96.9656 23.4017 96.044 22.3283 95.344 20.975C94.6673 19.5983 94.329 18.035 94.329 16.285C94.329 14.535 94.679 12.9717 95.379 11.595C96.079 10.2183 97.024 9.13333 98.214 8.34C99.4273 7.54667 100.781 7.15 102.274 7.15C103.907 7.15 105.144 7.57 105.984 8.41C106.847 9.22667 107.431 10.3233 107.734 11.7C108.061 13.0767 108.224 14.605 108.224 16.285C108.224 17.1717 108.131 18.14 107.944 19.19C107.757 20.2167 107.431 21.2083 106.964 22.165C106.521 23.0983 105.891 23.8683 105.074 24.475C104.257 25.0583 103.207 25.35 101.924 25.35ZM102.624 22.69C103.814 22.69 104.794 22.3983 105.564 21.815C106.357 21.2317 106.941 20.4617 107.314 19.505C107.687 18.525 107.874 17.4517 107.874 16.285C107.874 15.0017 107.676 13.8817 107.279 12.925C106.906 11.945 106.322 11.1867 105.529 10.65C104.759 10.09 103.791 9.81 102.624 9.81C100.874 9.81 99.5206 10.4283 98.564 11.665C97.6073 12.8783 97.129 14.4183 97.129 16.285C97.129 17.5217 97.3623 18.63 97.829 19.61C98.319 20.5667 98.9723 21.325 99.789 21.885C100.629 22.4217 101.574 22.69 102.624 22.69ZM107.874 7.5H110.674V25H108.119C108.119 25 108.096 24.79 108.049 24.37C108.026 23.95 107.991 23.46 107.944 22.9C107.897 22.34 107.874 21.8733 107.874 21.5V7.5ZM118.386 7.5H121.186V25H118.386V7.5ZM127.206 7.15C128.139 7.15 128.979 7.29 129.726 7.57C130.472 7.85 131.102 8.25833 131.616 8.795C132.129 9.33167 132.526 9.985 132.806 10.755C133.086 11.5017 133.226 12.3533 133.226 13.31V25H130.426V14.01C130.426 12.6567 130.111 11.6417 129.481 10.965C128.851 10.2883 127.906 9.95 126.646 9.95C125.689 9.95 124.802 10.195 123.986 10.685C123.169 11.175 122.492 11.8517 121.956 12.715C121.442 13.555 121.127 14.535 121.011 15.655L120.976 13.625C121.092 12.645 121.326 11.7583 121.676 10.965C122.049 10.1717 122.504 9.495 123.041 8.935C123.601 8.35167 124.231 7.90833 124.931 7.605C125.654 7.30167 126.412 7.15 127.206 7.15ZM139.691 7.5H149.981V10.125H139.691V7.5ZM143.436 2.95H146.236V25H143.436V2.95ZM159.904 0.499998V3.895H156.264V0.499998H159.904ZM156.684 7.5H159.484V25H156.684V7.5Z" fill="white"/>
</g>
<defs>
<clipPath id="clip0_8830_39">
<rect width="162" height="27" fill="white"/>
</clipPath>
</defs>
</svg>
