<svg width="210" height="136" viewBox="0 0 210 136" fill="none" xmlns="http://www.w3.org/2000/svg">
<rect x="0.5" y="0.5" width="209" height="135" rx="24.5" fill="white"/>
<rect x="0.5" y="0.5" width="209" height="135" rx="24.5" stroke="#D6DCE5"/>
<path d="M68.2764 50.4478C69.664 48.7121 70.6057 46.3815 70.3574 44C68.326 44.101 65.8471 45.3402 64.4119 47.0772C63.1233 48.5648 61.9827 50.9929 62.2801 53.2746C64.5604 53.4724 66.8386 52.1348 68.2764 50.4478Z" fill="#000008"/>
<path d="M70.3315 53.7201C67.0199 53.5229 64.2043 55.5996 62.6228 55.5996C61.0405 55.5996 58.6188 53.8195 55.9995 53.8675C52.5903 53.9176 49.427 55.8452 47.697 58.9109C44.1386 65.0439 46.7579 74.1413 50.2182 79.1363C51.8986 81.6075 53.9238 84.3285 56.5923 84.2307C59.1135 84.1318 60.1017 82.5982 63.1664 82.5982C66.2289 82.5982 67.1191 84.2307 69.788 84.1813C72.5557 84.1318 74.286 81.7089 75.9664 79.2353C77.8941 76.4183 78.6832 73.6982 78.7329 73.5489C78.6832 73.4994 73.3959 71.4711 73.3469 65.389C73.297 60.2964 77.498 57.8741 77.6957 57.7239C75.3234 54.2152 71.6166 53.8195 70.3315 53.7201Z" fill="#000008"/>
<path d="M99.1662 46.8281C106.364 46.8281 111.376 51.7896 111.376 59.0131C111.376 66.2623 106.261 71.2496 98.9858 71.2496H91.0165V83.9229H85.2588V46.8281L99.1662 46.8281ZM91.0165 66.4165H97.6232C102.636 66.4165 105.489 63.7177 105.489 59.0388C105.489 54.3605 102.636 51.6869 97.6489 51.6869H91.0165V66.4165Z" fill="#000008"/>
<path d="M112.88 76.2367C112.88 71.5063 116.505 68.6017 122.932 68.2417L130.335 67.8048V65.7228C130.335 62.715 128.304 60.9156 124.911 60.9156C121.697 60.9156 119.692 62.4576 119.204 64.8744H113.96C114.269 59.9898 118.433 56.391 125.117 56.391C131.672 56.391 135.862 59.8614 135.862 65.2855V83.9228H130.54V79.4756H130.412C128.844 82.4834 125.425 84.3855 121.878 84.3855C116.582 84.3855 112.88 81.095 112.88 76.2367ZM130.335 73.7947V71.6611L123.677 72.0721C120.361 72.3037 118.484 73.7689 118.484 76.0825C118.484 78.4472 120.438 79.9898 123.42 79.9898C127.301 79.9898 130.335 77.3162 130.335 73.7947Z" fill="#000008"/>
<path d="M140.886 93.8715V89.3727C141.296 89.4753 142.221 89.4753 142.685 89.4753C145.255 89.4753 146.643 88.3959 147.491 85.6196C147.491 85.5681 147.98 83.9744 147.98 83.9486L138.212 56.8794H144.227L151.065 78.8845H151.167L158.006 56.8794H163.867L153.738 85.3365C151.425 91.8921 148.752 93.9999 143.148 93.9999C142.685 93.9999 141.296 93.9483 140.886 93.8715Z" fill="#000008"/>
</svg>
