<svg width="210" height="136" viewBox="0 0 210 136" fill="none" xmlns="http://www.w3.org/2000/svg">
<rect x="0.5" y="0.5" width="209" height="135" rx="24.5" fill="white"/>
<rect x="0.5" y="0.5" width="209" height="135" rx="24.5" stroke="#D6DCE5"/>
<path d="M119.941 40.483H89.3164V95.517H119.941V40.483Z" fill="#FF5F00"/>
<path d="M91.2611 68C91.2562 62.6998 92.4573 57.468 94.7733 52.7006C97.0893 47.9333 100.46 43.7553 104.629 40.483C99.4658 36.4246 93.2649 33.9007 86.7351 33.1999C80.2053 32.499 73.6101 33.6495 67.7032 36.5197C61.7963 39.39 56.8161 43.8642 53.3319 49.4311C49.8477 54.9979 48 61.4327 48 68C48 74.5673 49.8477 81.0021 53.3319 86.5689C56.8161 92.1358 61.7963 96.61 67.7032 99.4803C73.6101 102.351 80.2053 103.501 86.7351 102.8C93.2649 102.099 99.4658 99.5754 104.629 95.517C100.46 92.2447 97.0894 88.0667 94.7733 83.2993C92.4573 78.532 91.2563 73.3002 91.2611 68Z" fill="#EB001B"/>
<path d="M161.256 68C161.256 74.5672 159.409 81.002 155.925 86.5688C152.441 92.1357 147.461 96.6099 141.554 99.4802C135.647 102.35 129.052 103.501 122.523 102.8C115.993 102.099 109.792 99.5754 104.629 95.517C108.795 92.2414 112.162 88.0627 114.478 83.2961C116.794 78.5295 117.997 73.2993 117.997 68C117.997 62.7007 116.794 57.4705 114.478 52.7039C112.162 47.9373 108.795 43.7586 104.629 40.483C109.792 36.4246 115.993 33.9007 122.523 33.1999C129.052 32.499 135.647 33.6495 141.554 36.5198C147.461 39.3901 152.441 43.8643 155.925 49.4312C159.409 54.998 161.256 61.4328 161.256 68Z" fill="#F79E1B"/>
<path d="M157.917 89.6881V88.5613H158.371V88.3318H157.214V88.5613H157.669V89.6881H157.917ZM160.163 89.6881V88.3296H159.809L159.401 89.264L158.993 88.3296H158.638V89.6881H158.888V88.6633L159.271 89.5468H159.531L159.913 88.6611V89.6881H160.163Z" fill="#F79E1B"/>
</svg>
