<svg width="210" height="136" viewBox="0 0 210 136" fill="none" xmlns="http://www.w3.org/2000/svg">
<rect x="0.5" y="0.5" width="209" height="135" rx="24.5" fill="url(#paint0_linear_8828_18)"/>
<rect x="0.5" y="0.5" width="209" height="135" rx="24.5" stroke="#D6DCE5"/>
<path d="M4 24C4 12.9543 12.9543 4 24 4H133C168.346 4 197 32.6538 197 68C197 103.346 168.346 132 133 132H24C12.9543 132 4 123.046 4 112V24Z" fill="white"/>
<path d="M66.8441 68.0826C66.8441 75.9518 73.0244 82.0522 80.9736 82.0522C83.2226 82.0522 85.145 81.6088 87.5194 80.493V74.3473C85.4326 76.4341 83.5837 77.2774 81.2158 77.2774C75.9567 77.2774 72.2243 73.465 72.2243 68.0437C72.2243 62.9057 76.0778 58.8511 80.9736 58.8511C83.4648 58.8511 85.3505 59.7377 87.5194 61.8612V55.7177C85.2294 54.5564 83.3437 54.0742 81.0969 54.0742C73.1866 54.0742 66.8441 60.2999 66.8441 68.0826Z" fill="#251F1F"/>
<path d="M53.4432 61.5823C53.4432 63.0268 54.3644 63.7923 57.4978 64.9514C63.4381 67.1247 65.1984 69.0493 65.1984 73.3028C65.1984 78.4841 61.3903 82.0911 55.9647 82.0911C51.9922 82.0911 49.1032 80.5276 46.6963 76.9963L50.0698 73.7483C51.2721 76.0729 53.2789 77.3185 55.7679 77.3185C58.099 77.3185 59.8225 75.7118 59.8225 73.5429C59.8225 72.4184 59.2992 71.4518 58.2569 70.7728C57.7314 70.4505 56.6912 69.9683 54.6477 69.2482C49.7432 67.4836 48.0608 65.5958 48.0608 61.9067C48.0608 57.5255 51.6743 54.2364 56.4101 54.2364C59.3446 54.2364 62.0304 55.2398 64.2772 57.2055L61.5438 60.7822C60.1836 59.2576 58.8991 58.6132 57.3335 58.6132C55.0824 58.6132 53.4432 59.8956 53.4432 61.5823Z" fill="#251F1F"/>
<path fill-rule="evenodd" clip-rule="evenodd" d="M22.7362 54.6797H15.0703V81.4489H22.6952C26.7476 81.4489 29.6778 80.4931 32.2468 78.3587C35.3002 75.8308 37.1058 72.0205 37.1058 68.0827C37.1058 60.1832 31.2023 54.6797 22.7362 54.6797ZM28.8344 74.7907C27.1931 76.2698 25.0631 76.9163 21.6896 76.9163H20.2883V59.2166H21.6896C25.0631 59.2166 27.1088 59.8178 28.8344 61.3812C30.6422 62.9879 31.7256 65.4791 31.7256 68.0438C31.7256 70.6128 30.6422 73.1839 28.8344 74.7907Z" fill="#251F1F"/>
<path d="M44.7307 54.6797H39.5084V81.4489H44.7307V54.6797Z" fill="#251F1F"/>
<path d="M121.781 54.6797L128.922 72.6585L136.153 54.6797H141.812L130.248 82.1365H127.439L116.079 54.6797H121.781Z" fill="#251F1F"/>
<path d="M144.174 81.4489H158.982V76.9163H149.392V69.6916H158.628V65.1569H149.392V59.2166H158.982V54.6797H144.174V81.4489Z" fill="#251F1F"/>
<path fill-rule="evenodd" clip-rule="evenodd" d="M170.182 54.6797C176.204 54.6797 179.66 57.571 179.66 62.5814C179.66 66.6814 177.491 69.3715 173.557 70.1716L181.984 81.4489H175.564L168.337 70.6949H167.654V81.4489H162.44V54.6797H170.182ZM167.654 67.0036H169.183C172.517 67.0036 174.284 65.5548 174.284 62.8647C174.284 60.2589 172.517 58.8944 169.263 58.8944H167.654V67.0036Z" fill="#251F1F"/>
<path fill-rule="evenodd" clip-rule="evenodd" d="M183.82 56.0832C183.82 55.6118 183.494 55.3545 182.925 55.3545H182.168V57.7159H182.731V56.8011L183.39 57.7159H184.08L183.304 56.7428C183.634 56.6519 183.82 56.4097 183.82 56.0832ZM182.826 56.4054H182.731V55.787H182.832C183.111 55.787 183.256 55.8886 183.256 56.0919C183.256 56.2995 183.109 56.4054 182.826 56.4054Z" fill="#251F1F"/>
<path fill-rule="evenodd" clip-rule="evenodd" d="M180.981 56.5307C180.981 55.3868 181.894 54.4721 183.038 54.4721C184.153 54.4721 185.07 55.4041 185.07 56.5307C185.07 57.6639 184.153 58.5894 183.038 58.5894C181.902 58.5894 180.981 57.6725 180.981 56.5307ZM181.39 56.5329C181.39 57.4714 182.127 58.2218 183.029 58.2218C183.929 58.2218 184.659 57.4628 184.659 56.5329C184.659 55.6117 183.929 54.8419 183.029 54.8419C182.121 54.8419 181.39 55.5944 181.39 56.5329Z" fill="#251F1F"/>
<g filter="url(#filter0_i_8828_18)">
<path d="M103.348 82.2622C95.5243 82.2622 89.1797 75.9177 89.1797 68.0938V68.0746C89.1797 64.1819 90.756 60.6401 93.3054 58.0906C93.3054 58.0709 93.3252 58.0709 93.3252 58.0517C93.3444 58.0517 93.3444 58.032 93.3641 58.032C95.9135 55.4825 99.4559 53.9062 103.348 53.9062H103.368C111.192 53.9062 117.536 60.2508 117.536 68.0746V68.0938C117.536 71.9865 115.959 75.5092 113.41 78.0784C113.41 78.0976 113.391 78.0976 113.391 78.1173C113.371 78.1173 113.371 78.1365 113.352 78.1365C110.783 80.686 107.26 82.2622 103.368 82.2622H103.348Z" fill="url(#paint1_linear_8828_18)"/>
</g>
<defs>
<filter id="filter0_i_8828_18" x="89.1797" y="53.9062" width="29.3974" height="29.9124" filterUnits="userSpaceOnUse" color-interpolation-filters="sRGB">
<feFlood flood-opacity="0" result="BackgroundImageFix"/>
<feBlend mode="normal" in="SourceGraphic" in2="BackgroundImageFix" result="shape"/>
<feColorMatrix in="SourceAlpha" type="matrix" values="0 0 0 0 0 0 0 0 0 0 0 0 0 0 0 0 0 0 127 0" result="hardAlpha"/>
<feOffset dx="1.03798" dy="1.55697"/>
<feGaussianBlur stdDeviation="1.03798"/>
<feComposite in2="hardAlpha" operator="arithmetic" k2="-1" k3="1"/>
<feColorMatrix type="matrix" values="0 0 0 0 0 0 0 0 0 0 0 0 0 0 0 0 0 0 0.35 0"/>
<feBlend mode="normal" in2="shape" result="effect1_innerShadow_8828_18"/>
</filter>
<linearGradient id="paint0_linear_8828_18" x1="66.4384" y1="0.999979" x2="146.634" y2="136.712" gradientUnits="userSpaceOnUse">
<stop stop-color="#E05026"/>
<stop offset="1" stop-color="#F9A020"/>
</linearGradient>
<linearGradient id="paint1_linear_8828_18" x1="95.9266" y1="53.9062" x2="119.226" y2="73.6222" gradientUnits="userSpaceOnUse">
<stop stop-color="#EF3823"/>
<stop offset="0.489583" stop-color="#F04D22"/>
<stop offset="1" stop-color="#F7911D"/>
</linearGradient>
</defs>
</svg>
